<svg width="48" height="47" viewBox="0 0 48 47" fill="none" xmlns="http://www.w3.org/2000/svg">
<g clip-path="url(#clip0_3_718)">
<path d="M27.1 23.6C27.1 23.9 27.1 24.1 27.1 24.4C27.1 26 26 27 24.4 27H15.6C14 27 12.9 26 12.9 24.4C12.9 22.1 13.4 16.5 16.4 16.5C16.7 16.5 18 17.9 20 17.9C22 17.9 23.3 16.5 23.6 16.5C24.5 16.5 25.2 17.1 25.7 17.8M17.9 15.1C16.8 14.4 16.1 13.2 16.1 11.9C16.1 9.79996 17.8 8.09998 20 8.09998C22.1 8.09998 23.9 9.79996 23.9 11.9C23.9 13.3 23.2 14.5 22 15.2" stroke="black" stroke-width="1.5" stroke-miterlimit="10" stroke-linecap="round" stroke-linejoin="round"/>
<path d="M30.3 19.8999V13.8999" stroke="black" stroke-width="1.5" stroke-miterlimit="10" stroke-linecap="round" stroke-linejoin="round"/>
<path d="M27.4 17H33.4" stroke="black" stroke-width="1.5" stroke-miterlimit="10" stroke-linecap="round" stroke-linejoin="round"/>
<path d="M26.6 14.2C26.7 14 26.9 13.8 27.1 13.6C29 11.8 32 11.8 33.8 13.6C35.7 15.4 35.7 18.4 33.8 20.3C31.9 22.1 28.9 22.1 27.1 20.3C26.4 19.7 26 18.8 25.8 17.9" stroke="black" stroke-width="1.5" stroke-miterlimit="10" stroke-linecap="round" stroke-linejoin="round"/>
</g>
<path d="M18.5619 32.9545H19.3545V37.6335C19.3545 38.0511 19.2778 38.4059 19.1244 38.6978C18.971 38.9897 18.7547 39.2113 18.4756 39.3626C18.1965 39.5138 17.8673 39.5895 17.488 39.5895C17.1301 39.5895 16.8115 39.5245 16.5324 39.3945C16.2533 39.2624 16.0338 39.0749 15.874 38.832C15.7142 38.5891 15.6343 38.3004 15.6343 37.9659H16.4141C16.4141 38.1513 16.46 38.3132 16.5516 38.4517C16.6453 38.5881 16.7732 38.6946 16.9351 38.7713C17.097 38.848 17.2813 38.8864 17.488 38.8864C17.716 38.8864 17.9099 38.8384 18.0697 38.7425C18.2295 38.6467 18.3509 38.506 18.434 38.3207C18.5193 38.1332 18.5619 37.9041 18.5619 37.6335V32.9545ZM22.835 39.6023C22.3918 39.6023 22.0029 39.4968 21.6684 39.2859C21.336 39.0749 21.0761 38.7798 20.8886 38.4006C20.7032 38.0213 20.6105 37.5781 20.6105 37.071C20.6105 36.5597 20.7032 36.1133 20.8886 35.7319C21.0761 35.3505 21.336 35.0543 21.6684 34.8434C22.0029 34.6325 22.3918 34.527 22.835 34.527C23.2781 34.527 23.6659 34.6325 23.9983 34.8434C24.3328 35.0543 24.5928 35.3505 24.7781 35.7319C24.9656 36.1133 25.0594 36.5597 25.0594 37.071C25.0594 37.5781 24.9656 38.0213 24.7781 38.4006C24.5928 38.7798 24.3328 39.0749 23.9983 39.2859C23.6659 39.4968 23.2781 39.6023 22.835 39.6023ZM22.835 38.9247C23.1716 38.9247 23.4486 38.8384 23.6659 38.6658C23.8832 38.4933 24.0441 38.2663 24.1485 37.9851C24.2529 37.7038 24.3051 37.3991 24.3051 37.071C24.3051 36.7429 24.2529 36.4371 24.1485 36.1538C24.0441 35.8704 23.8832 35.6413 23.6659 35.4666C23.4486 35.2919 23.1716 35.2045 22.835 35.2045C22.4983 35.2045 22.2213 35.2919 22.004 35.4666C21.7867 35.6413 21.6258 35.8704 21.5214 36.1538C21.417 36.4371 21.3648 36.7429 21.3648 37.071C21.3648 37.3991 21.417 37.7038 21.5214 37.9851C21.6258 38.2663 21.7867 38.4933 22.004 38.6658C22.2213 38.8384 22.4983 38.9247 22.835 38.9247ZM26.2108 39.5V34.5909H26.965V39.5H26.2108ZM26.5943 33.7727C26.4473 33.7727 26.3205 33.7227 26.2139 33.6225C26.1095 33.5224 26.0573 33.402 26.0573 33.2614C26.0573 33.1207 26.1095 33.0004 26.2139 32.9002C26.3205 32.8001 26.4473 32.75 26.5943 32.75C26.7413 32.75 26.867 32.8001 26.9714 32.9002C27.0779 33.0004 27.1312 33.1207 27.1312 33.2614C27.1312 33.402 27.0779 33.5224 26.9714 33.6225C26.867 33.7227 26.7413 33.7727 26.5943 33.7727ZM29.1008 36.5469V39.5H28.3465V34.5909H29.0752V35.358H29.1391C29.2542 35.1087 29.4289 34.9084 29.6633 34.7571C29.8976 34.6037 30.2002 34.527 30.5709 34.527C30.9033 34.527 31.1942 34.5952 31.4434 34.7315C31.6927 34.8658 31.8866 35.0703 32.0251 35.3452C32.1636 35.6179 32.2329 35.9631 32.2329 36.3807V39.5H31.4786V36.4318C31.4786 36.0462 31.3785 35.7457 31.1782 35.5305C30.9779 35.3132 30.703 35.2045 30.3536 35.2045C30.1128 35.2045 29.8976 35.2567 29.708 35.3612C29.5205 35.4656 29.3724 35.6179 29.2638 35.8182C29.1551 36.0185 29.1008 36.2614 29.1008 36.5469Z" fill="#474C55"/>
<defs>
<clipPath id="clip0_3_718">
<rect width="24" height="24" fill="white" transform="translate(12 5.5)"/>
</clipPath>
</defs>
</svg>
