<svg width="48" height="47" viewBox="0 0 48 47" fill="none" xmlns="http://www.w3.org/2000/svg">
<path d="M11.9683 39.5V32.9545H12.7609V38.7969H15.8035V39.5H11.9683ZM18.9228 39.6023C18.4797 39.6023 18.0908 39.4968 17.7563 39.2859C17.4239 39.0749 17.164 38.7798 16.9765 38.4006C16.7911 38.0213 16.6984 37.5781 16.6984 37.071C16.6984 36.5597 16.7911 36.1133 16.9765 35.7319C17.164 35.3505 17.4239 35.0543 17.7563 34.8434C18.0908 34.6325 18.4797 34.527 18.9228 34.527C19.366 34.527 19.7538 34.6325 20.0862 34.8434C20.4207 35.0543 20.6807 35.3505 20.866 35.7319C21.0535 36.1133 21.1473 36.5597 21.1473 37.071C21.1473 37.5781 21.0535 38.0213 20.866 38.4006C20.6807 38.7798 20.4207 39.0749 20.0862 39.2859C19.7538 39.4968 19.366 39.6023 18.9228 39.6023ZM18.9228 38.9247C19.2595 38.9247 19.5365 38.8384 19.7538 38.6658C19.9711 38.4933 20.132 38.2663 20.2364 37.9851C20.3408 37.7038 20.393 37.3991 20.393 37.071C20.393 36.7429 20.3408 36.4371 20.2364 36.1538C20.132 35.8704 19.9711 35.6413 19.7538 35.4666C19.5365 35.2919 19.2595 35.2045 18.9228 35.2045C18.5862 35.2045 18.3092 35.2919 18.0919 35.4666C17.8745 35.6413 17.7137 35.8704 17.6093 36.1538C17.5049 36.4371 17.4527 36.7429 17.4527 37.071C17.4527 37.3991 17.5049 37.7038 17.6093 37.9851C17.7137 38.2663 17.8745 38.4933 18.0919 38.6658C18.3092 38.8384 18.5862 38.9247 18.9228 38.9247ZM24.2802 41.4432C23.9158 41.4432 23.6026 41.3963 23.3405 41.3026C23.0785 41.2109 22.8601 41.0895 22.6854 40.9382C22.5128 40.7891 22.3753 40.6293 22.2731 40.4588L22.8739 40.0369C22.9421 40.1264 23.0284 40.2287 23.1328 40.3438C23.2372 40.4609 23.38 40.5621 23.5611 40.6474C23.7443 40.7347 23.984 40.7784 24.2802 40.7784C24.6765 40.7784 25.0035 40.6825 25.2614 40.4908C25.5192 40.299 25.6481 39.9986 25.6481 39.5895V38.5923H25.5842C25.5288 38.6818 25.4499 38.7926 25.3476 38.9247C25.2475 39.0547 25.1026 39.1708 24.913 39.2731C24.7255 39.3732 24.4719 39.4233 24.1523 39.4233C23.756 39.4233 23.4002 39.3295 23.0849 39.142C22.7717 38.9545 22.5234 38.6818 22.3402 38.3239C22.1591 37.9659 22.0685 37.5312 22.0685 37.0199C22.0685 36.517 22.157 36.0792 22.3338 35.7063C22.5106 35.3313 22.7567 35.0415 23.0721 34.837C23.3874 34.6303 23.7518 34.527 24.1651 34.527C24.4847 34.527 24.7383 34.5803 24.9258 34.6868C25.1154 34.7912 25.2603 34.9105 25.3604 35.0447C25.4627 35.1768 25.5415 35.2855 25.5969 35.3707H25.6736V34.5909H26.4023V39.6406C26.4023 40.0625 26.3065 40.4055 26.1147 40.6697C25.9251 40.9361 25.6694 41.131 25.3476 41.2546C25.028 41.3803 24.6722 41.4432 24.2802 41.4432ZM24.2546 38.7457C24.5572 38.7457 24.8128 38.6765 25.0217 38.538C25.2305 38.3995 25.3892 38.2003 25.4979 37.9403C25.6065 37.6804 25.6609 37.3693 25.6609 37.0071C25.6609 36.6534 25.6076 36.3413 25.5011 36.0707C25.3945 35.8001 25.2369 35.5881 25.028 35.4347C24.8192 35.2812 24.5614 35.2045 24.2546 35.2045C23.935 35.2045 23.6687 35.2855 23.4556 35.4474C23.2447 35.6094 23.0859 35.8267 22.9794 36.0994C22.875 36.3722 22.8228 36.6747 22.8228 37.0071C22.8228 37.348 22.8761 37.6495 22.9826 37.9116C23.0913 38.1715 23.2511 38.3761 23.462 38.5252C23.6751 38.6722 23.9393 38.7457 24.2546 38.7457ZM30.3143 39.5V34.5909H31.0685V39.5H30.3143ZM30.6978 33.7727C30.5508 33.7727 30.424 33.7227 30.3175 33.6225C30.2131 33.5224 30.1609 33.402 30.1609 33.2614C30.1609 33.1207 30.2131 33.0004 30.3175 32.9002C30.424 32.8001 30.5508 32.75 30.6978 32.75C30.8448 32.75 30.9705 32.8001 31.0749 32.9002C31.1815 33.0004 31.2347 33.1207 31.2347 33.2614C31.2347 33.402 31.1815 33.5224 31.0749 33.6225C30.9705 33.7227 30.8448 33.7727 30.6978 33.7727ZM33.2043 36.5469V39.5H32.45V34.5909H33.1787V35.358H33.2426C33.3577 35.1087 33.5324 34.9084 33.7668 34.7571C34.0011 34.6037 34.3037 34.527 34.6744 34.527C35.0068 34.527 35.2977 34.5952 35.547 34.7315C35.7962 34.8658 35.9901 35.0703 36.1286 35.3452C36.2671 35.6179 36.3364 35.9631 36.3364 36.3807V39.5H35.5821V36.4318C35.5821 36.0462 35.482 35.7457 35.2817 35.5305C35.0814 35.3132 34.8065 35.2045 34.4571 35.2045C34.2163 35.2045 34.0011 35.2567 33.8115 35.3612C33.624 35.4656 33.4759 35.6179 33.3673 35.8182C33.2586 36.0185 33.2043 36.2614 33.2043 36.5469Z" fill="#474C55"/>
<path d="M16.2857 4H28.8571C29.6907 4 30.4901 4.25754 31.0795 4.71596C31.6689 5.17438 32 5.79614 32 6.44444V23.5556C32 24.2039 31.6689 24.8256 31.0795 25.284C30.4901 25.7425 29.6907 26 28.8571 26H16.2857M25.7143 15L19.4286 10.1111M25.7143 15L19.4286 19.8889M25.7143 15H10" stroke="black" stroke-width="2" stroke-linecap="round" stroke-linejoin="round"/>
</svg>
