<svg width="48" height="47" viewBox="0 0 48 47" fill="none" xmlns="http://www.w3.org/2000/svg">
<g clip-path="url(#clip0_3_711)">
<path d="M23.5 10.2C25.5 10.7 27 12.2 27.6 14.2" stroke="black" stroke-width="1.5" stroke-miterlimit="10"/>
<path d="M28.2 24.8L31.4001 28C32.1001 28.8 33.4 28.8 34.1 28L34.6 27.5C35.4 26.8 35.4 25.5 34.6 24.8L29.4001 19.6C30.1001 18.3 30.5 16.8 30.5 15.2C30.5 10.3 26.6 6.40002 21.7 6.40002C16.8 6.40002 12.9 10.3 12.8 15.2C12.8 20.1 16.6 24 21.5 24.1C23.2 24.1 24.8 23.7 26.1 22.9" stroke="black" stroke-width="1.5" stroke-miterlimit="10"/>
</g>
<path d="M13.6758 34.5909C13.6374 34.267 13.4819 34.0156 13.2092 33.8366C12.9364 33.6577 12.6019 33.5682 12.2056 33.5682C11.9158 33.5682 11.6623 33.6151 11.4449 33.7088C11.2298 33.8026 11.0614 33.9315 10.94 34.0955C10.8207 34.2596 10.761 34.446 10.761 34.6548C10.761 34.8295 10.8025 34.9798 10.8856 35.1055C10.9709 35.229 11.0795 35.3324 11.2116 35.4155C11.3437 35.4964 11.4822 35.5636 11.6271 35.6168C11.772 35.668 11.9052 35.7095 12.0266 35.7415L12.6914 35.9205C12.8619 35.9652 13.0515 36.027 13.2603 36.1058C13.4712 36.1847 13.6726 36.2923 13.8643 36.4286C14.0582 36.5629 14.218 36.7354 14.3437 36.9464C14.4695 37.1573 14.5323 37.4162 14.5323 37.723C14.5323 38.0767 14.4396 38.3963 14.2543 38.6818C14.071 38.9673 13.8025 39.1942 13.4489 39.3626C13.0973 39.5309 12.6701 39.6151 12.1672 39.6151C11.6985 39.6151 11.2926 39.5394 10.9496 39.3881C10.6087 39.2369 10.3402 39.0259 10.1442 38.7553C9.95028 38.4847 9.84055 38.1705 9.81498 37.8125H10.6332C10.6545 38.0597 10.7376 38.2642 10.8824 38.4261C11.0295 38.5859 11.2148 38.7053 11.4386 38.7841C11.6644 38.8608 11.9073 38.8991 12.1672 38.8991C12.4698 38.8991 12.7415 38.8501 12.9822 38.7521C13.223 38.652 13.4137 38.5135 13.5543 38.3366C13.6949 38.1577 13.7653 37.9489 13.7653 37.7102C13.7653 37.4929 13.7045 37.3161 13.5831 37.1797C13.4616 37.0433 13.3018 36.9325 13.1037 36.8473C12.9055 36.7621 12.6914 36.6875 12.4613 36.6236L11.6559 36.3935C11.1445 36.2464 10.7397 36.0366 10.4414 35.7638C10.1431 35.4911 9.99395 35.1342 9.99395 34.6932C9.99395 34.3267 10.093 34.0071 10.2912 33.7344C10.4915 33.4595 10.7599 33.2464 11.0966 33.0952C11.4354 32.9418 11.8136 32.8651 12.2312 32.8651C12.653 32.8651 13.028 32.9407 13.3562 33.092C13.6843 33.2411 13.9442 33.4457 14.136 33.7056C14.3299 33.9656 14.4322 34.2607 14.4428 34.5909H13.6758ZM17.7915 39.6023C17.3184 39.6023 16.9104 39.4979 16.5674 39.2891C16.2265 39.0781 15.9633 38.7841 15.778 38.407C15.5947 38.0277 15.5031 37.5866 15.5031 37.0838C15.5031 36.581 15.5947 36.1378 15.778 35.7543C15.9633 35.3686 16.2211 35.0682 16.5514 34.853C16.8838 34.6357 17.2716 34.527 17.7147 34.527C17.9704 34.527 18.2229 34.5696 18.4722 34.6548C18.7215 34.7401 18.9484 34.8786 19.153 35.0703C19.3575 35.2599 19.5205 35.5114 19.6419 35.8246C19.7634 36.1378 19.8241 36.5234 19.8241 36.9815V37.3011H16.04V36.6491H19.0571C19.0571 36.3722 19.0017 36.125 18.8909 35.9077C18.7822 35.6903 18.6267 35.5188 18.4243 35.3931C18.224 35.2674 17.9875 35.2045 17.7147 35.2045C17.4143 35.2045 17.1544 35.2791 16.9349 35.4283C16.7176 35.5753 16.5503 35.767 16.4331 36.0036C16.316 36.2401 16.2574 36.4936 16.2574 36.7642V37.1989C16.2574 37.5696 16.3213 37.8839 16.4491 38.1417C16.5791 38.3974 16.7591 38.5923 16.9892 38.7266C17.2194 38.8587 17.4868 38.9247 17.7915 38.9247C17.9896 38.9247 18.1686 38.897 18.3284 38.8416C18.4903 38.7841 18.6299 38.6989 18.7471 38.5859C18.8642 38.4709 18.9548 38.3281 19.0187 38.1577L19.7474 38.3622C19.6707 38.6094 19.5418 38.8267 19.3607 39.0142C19.1796 39.1996 18.9559 39.3445 18.6895 39.4489C18.4232 39.5511 18.1238 39.6023 17.7915 39.6023ZM22.4161 39.6151C22.105 39.6151 21.8227 39.5565 21.5691 39.4393C21.3156 39.32 21.1142 39.1484 20.9651 38.9247C20.816 38.6989 20.7414 38.4261 20.7414 38.1065C20.7414 37.8253 20.7968 37.5973 20.9076 37.4226C21.0184 37.2457 21.1665 37.1072 21.3518 37.0071C21.5372 36.907 21.7417 36.8324 21.9655 36.7834C22.1913 36.7322 22.4182 36.6918 22.6462 36.6619C22.9445 36.6236 23.1863 36.5948 23.3717 36.5756C23.5592 36.5543 23.6956 36.5192 23.7808 36.4702C23.8682 36.4212 23.9118 36.3359 23.9118 36.2145V36.1889C23.9118 35.8736 23.8255 35.6286 23.653 35.4538C23.4825 35.2791 23.2236 35.1918 22.8763 35.1918C22.5162 35.1918 22.2339 35.2706 22.0294 35.4283C21.8248 35.5859 21.681 35.7543 21.5979 35.9332L20.882 35.6776C21.0098 35.3793 21.1803 35.147 21.3934 34.9808C21.6086 34.8125 21.8429 34.6953 22.0965 34.6293C22.3522 34.5611 22.6036 34.527 22.8508 34.527C23.0084 34.527 23.1895 34.5462 23.3941 34.5845C23.6008 34.6207 23.8 34.6964 23.9917 34.8114C24.1856 34.9265 24.3465 35.1001 24.4743 35.3324C24.6022 35.5646 24.6661 35.8757 24.6661 36.2656V39.5H23.9118V38.8352H23.8735C23.8223 38.9418 23.7371 39.0558 23.6178 39.1772C23.4985 39.2987 23.3397 39.402 23.1416 39.4872C22.9434 39.5724 22.7016 39.6151 22.4161 39.6151ZM22.5312 38.9375C22.8294 38.9375 23.0809 38.8789 23.2854 38.7617C23.4921 38.6445 23.6476 38.4933 23.752 38.3079C23.8586 38.1225 23.9118 37.9276 23.9118 37.723V37.0327C23.8799 37.071 23.8096 37.1062 23.7009 37.1381C23.5944 37.168 23.4708 37.1946 23.3302 37.218C23.1917 37.2393 23.0564 37.2585 22.9243 37.2756C22.7943 37.2905 22.6888 37.3033 22.6079 37.3139C22.4118 37.3395 22.2286 37.381 22.0581 37.4386C21.8898 37.494 21.7535 37.5781 21.6491 37.6911C21.5468 37.8018 21.4956 37.9531 21.4956 38.1449C21.4956 38.407 21.5926 38.6051 21.7865 38.7393C21.9825 38.8714 22.2307 38.9375 22.5312 38.9375ZM26.0428 39.5V34.5909H26.7715V35.3324H26.8226C26.9121 35.0895 27.074 34.8924 27.3084 34.7411C27.5428 34.5898 27.807 34.5142 28.101 34.5142C28.1564 34.5142 28.2257 34.5153 28.3088 34.5174C28.3919 34.5195 28.4547 34.5227 28.4973 34.527V35.294C28.4718 35.2876 28.4132 35.2781 28.3215 35.2653C28.2321 35.2504 28.1372 35.2429 28.0371 35.2429C27.7985 35.2429 27.5854 35.293 27.3979 35.3931C27.2125 35.4911 27.0655 35.6275 26.9568 35.8022C26.8503 35.9748 26.797 36.1719 26.797 36.3935V39.5H26.0428ZM31.2363 39.6023C30.7761 39.6023 30.3798 39.4936 30.0474 39.2763C29.715 39.0589 29.4593 38.7596 29.2804 38.3782C29.1014 37.9968 29.0119 37.5611 29.0119 37.071C29.0119 36.5724 29.1035 36.1325 29.2867 35.7511C29.4721 35.3675 29.7299 35.0682 30.0602 34.853C30.3926 34.6357 30.7804 34.527 31.2235 34.527C31.5687 34.527 31.8798 34.5909 32.1568 34.7188C32.4338 34.8466 32.6607 35.0256 32.8375 35.2557C33.0144 35.4858 33.1241 35.7543 33.1667 36.0611H32.4125C32.3549 35.8374 32.2271 35.6392 32.0289 35.4666C31.8329 35.2919 31.5687 35.2045 31.2363 35.2045C30.9423 35.2045 30.6845 35.2812 30.4629 35.4347C30.2434 35.5859 30.0719 35.8001 29.9483 36.0771C29.8269 36.3519 29.7661 36.6747 29.7661 37.0455C29.7661 37.4247 29.8258 37.755 29.9451 38.0362C30.0666 38.3175 30.237 38.5359 30.4565 38.6914C30.6781 38.8469 30.938 38.9247 31.2363 38.9247C31.4323 38.9247 31.6103 38.8906 31.7701 38.8224C31.9299 38.7543 32.0652 38.6562 32.176 38.5284C32.2867 38.4006 32.3656 38.2472 32.4125 38.0682H33.1667C33.1241 38.358 33.0186 38.619 32.8503 38.8512C32.6841 39.0813 32.4636 39.2646 32.1887 39.4009C31.916 39.5352 31.5985 39.6023 31.2363 39.6023ZM35.0236 36.5469V39.5H34.2693V32.9545H35.0236V35.358H35.0875C35.2026 35.1044 35.3752 34.9031 35.6053 34.7539C35.8375 34.6026 36.1465 34.527 36.5321 34.527C36.8666 34.527 37.1596 34.5941 37.411 34.7283C37.6625 34.8604 37.8574 35.0639 37.9959 35.3388C38.1365 35.6115 38.2068 35.9588 38.2068 36.3807V39.5H37.4526V36.4318C37.4526 36.0419 37.3514 35.7404 37.149 35.5273C36.9487 35.3121 36.6706 35.2045 36.3148 35.2045C36.0676 35.2045 35.846 35.2567 35.65 35.3612C35.4561 35.4656 35.3027 35.6179 35.1898 35.8182C35.079 36.0185 35.0236 36.2614 35.0236 36.5469Z" fill="#737370"/>
<defs>
<clipPath id="clip0_3_711">
<rect width="24" height="24" fill="white" transform="translate(12 5.5)"/>
</clipPath>
</defs>
</svg>
